<svg xmlns="http://www.w3.org/2000/svg" viewBox="0 0 513 342"><path fill="#205831" d="M0 0h513v342H0z"/><path fill="#004EB4" d="M0 342V0h513"/><path fill="#F4CA15" d="M0 328v14h28L513 14V0h-28z"/><g fill="#FFF"><path d="M47.2 11.5 54 32.6h22.3l-18 13.2 6.9 21.1-18-13.1-18 13.1L36 45.8 18 32.6h22.3zM160.8 11.5l6.9 21.1H190l-18 13.2 6.8 21.1-18-13.1-18 13.1 6.9-21.1-18-13.2H154zM47.2 122.3l6.8 21.1h22.3l-18 13.2 6.9 21.1-18-13-18 13 6.8-21.1-18-13.2h22.3zM160.8 122.3l6.9 21.1H190l-18 13.2 6.8 21.1-18-13-18 13 6.9-21.1-18-13.2H154zM104 66.9l6.8 21.2h22.3l-18 13 6.9 21.2-18-13.1-18 13.1 6.8-21.2-18-13h22.3z"/></g></svg>