<svg xmlns="http://www.w3.org/2000/svg" viewBox="0 0 900 600"><path fill="#FFF" d="M0 0h900v600H0V0z"/><path fill="#ED2939" d="M0 0h900v300H0V0z"/><g fill="#FFF"><path d="M129.7 150c0-48.8 29-90.9 70.6-109.9-3.4-.3-6.8-.5-10.2-.5-61 0-110.4 49.4-110.4 110.4s49.4 110.4 110.4 110.4c3.4 0 6.9-.2 10.2-.5-41.7-19-70.6-61.1-70.6-109.9zM260.9 90.1l16.9-12.3H257l-6.5-19.9-6.5 19.9h-20.8l16.9 12.3-6.5 19.8 16.9-12.3 16.9 12.3zM298.2 204.6l16.9-12.2h-20.9l-6.5-19.9-6.4 19.9h-20.9l16.9 12.2-6.5 19.9 16.9-12.3 16.9 12.3z"/><path d="m200.7 133.8 16.9-12.3h-20.9l-6.4-19.8-6.5 19.8h-20.9l16.9 12.3-6.4 19.9 16.9-12.3 16.9 12.3zM338.1 121.5h-20.9l-6.5-19.8-6.4 19.8h-20.9l16.9 12.3-6.5 19.9 16.9-12.3 16.9 12.3-6.4-19.9zM223.7 204.6l16.9-12.2h-20.9l-6.4-19.9-6.5 19.9h-20.9l16.9 12.2-6.4 19.9 16.9-12.3 16.9 12.3z"/></g></svg>