<svg xmlns="http://www.w3.org/2000/svg" viewBox="0 0 240 160"><path fill="#FF0D0B" d="M0 0h240v160H0V0z"/><path fill="#0E55BD" d="M0 0h240v106.7H0V0z"/><path fill="#FFF" d="M0 0h240v53.3H0V0z"/><path fill="#0E55BD" d="M99.5 30.8c-12.4-5.5-26.4-5.5-38.8 0-2.2 28.7 4.4 44.8 19.3 48.7 14.9-3.9 21.5-20 19.5-48.7z"/><g fill="#FF0"><path d="m82 37.1-1.5.1-.5-1.3-.5 1.3-1.5-.1.8 1.2-.8 1.2 1.5-.2.5 1.2.5-1.2 1.5.2-.8-1.2zM76.5 29.7l-1.4.2-.6-1.4-.6 1.4-1.4-.2.8 1.2-.8 1.2 1.4-.1.6 1.3.6-1.3 1.4.1-.8-1.2zM87.5 29.7l-1.4.2-.6-1.4-.6 1.4-1.4-.2.8 1.2-.8 1.2 1.4-.1.6 1.3.6-1.3 1.4.1-.8-1.2z"/></g><path fill="#FFF" d="m87.9 48.7-3.1 4.1-4.7-9.3-4.7 9.3-3.1-4.1-7.9 10.4c0 .5.1.9.3 1.5 2.1 7.6 8 13.7 15.5 16.3 7.5-2.5 13.3-8.7 15.5-16.3.1-.4.3-.9.3-1.5l-8.1-10.4z"/><path fill="#0E55BD" d="M64.5 60.5c.8 2.8 3.7 4.4 6.4 3.6.4-.1.8-.3 1.2-.5 1.6-.9 3.6-.9 5.2 0s3.6.9 5.2 0 3.6-.9 5.2 0c2.5 1.5 5.7.5 7.1-1.9.3-.4.4-.8.5-1.2l.3.1v3.9c-.9 0-1.9.3-2.7.7-1.6.9-3.6.9-5.2 0s-3.6-.9-5.2 0-3.6.9-5.2 0-3.6-.9-5.2 0-3.6.9-5.2 0c-.8-.4-1.7-.7-2.7-.7v-3.9"/><path fill="#0E55BD" d="M64.5 63.6c.8 2.8 3.7 4.4 6.4 3.6.4-.1.8-.3 1.2-.5 1.6-.9 3.6-.9 5.2 0s3.6.9 5.2 0 3.6-.9 5.2 0c2.5 1.5 5.7.5 7.1-1.9.3-.4.4-.8.5-1.2l.3.1v3.9c-.9 0-1.9.3-2.7.7-1.6.9-3.6.9-5.2 0s-3.6-.9-5.2 0-3.6.9-5.2 0-3.6-.9-5.2 0-3.6.9-5.2 0c-.8-.4-1.7-.7-2.7-.7v-3.9"/><path fill="#FF0D0B" d="m99.5 30.8-1.6 24.8c-.7 10.5-7.8 19.7-17.9 22.9-10.1-3.2-17.2-12.3-17.9-22.9l-1.6-24.8c-.5.3-.9.4-1.5.7l1.5 24.1C61.3 66.9 69.1 76.7 80 80c10.9-3.3 18.7-13.1 19.3-24.4l1.5-24.1c-.4-.3-.9-.6-1.3-.7z"/></svg>